<svg width="70" height="36" viewBox="0 0 70 36" fill="none" xmlns="http://www.w3.org/2000/svg">
<rect width="70" height="36" rx="10" fill="black"/>
<path d="M19.5 12.75H22.5L30 28.2H27L19.5 12.75Z" fill="white"/>
<rect x="8.25" y="3" width="3" height="4.5" fill="white"/>
<rect x="10.5" y="11.25" width="3" height="20.25" fill="white"/>
<rect x="16.5" y="3" width="3" height="25.2" fill="white"/>
<rect x="40.5" y="4.5" width="3" height="27" fill="white"/>
<rect x="47.25" y="11.25" width="3" height="11.55" fill="white"/>
<rect x="54.75" y="11.25" width="3" height="11.55" fill="white"/>
<rect x="61.5" y="4.5" width="3" height="27" fill="white"/>
<path d="M28.4999 12.75H29.9999L21.8999 28.2H20.3999L28.4999 12.75Z" fill="white"/>
<rect x="19.5" y="11.25" width="10.5" height="1.5" fill="white"/>
<rect x="47.25" y="11.25" width="10.5" height="1.5" fill="white"/>
<rect x="47.25" y="20.25" width="10.5" height="1.5" fill="white"/>
<rect x="19.5" y="3" width="10.5" height="1.5" fill="white"/>
<rect x="6" y="9.75" width="7.5" height="1.5" fill="white"/>
<rect x="6" y="30" width="4.5" height="1.5" fill="white"/>
<rect x="40.5" y="4.5" width="24" height="1.5" fill="white"/>
<rect x="40.5" y="28.2002" width="24" height="1.5" fill="white"/>
<rect x="10.5" y="31.5" width="19.5" height="1.5" fill="white"/>
</svg>
