<svg width="70" height="36" viewBox="0 0 70 36" fill="none" xmlns="http://www.w3.org/2000/svg">
<rect width="70" height="36" rx="10" fill="black"/>
<path d="M18.1499 21.75H21.1499L29.9999 33H26.9999L18.1499 21.75Z" fill="white"/>
<rect x="16.5" y="3" width="3" height="3.75" fill="white"/>
<rect x="27" y="8.25" width="3" height="6.9" fill="white"/>
<rect x="6" y="8.25" width="3" height="24.75" fill="white"/>
<path d="M19.35 17.4004H20.85L11.55 33.0004H10.05L19.35 17.4004Z" fill="white"/>
<path d="M57.4166 4.5H59.9999L43.9832 21.3H41.3999L57.4166 4.5Z" fill="white"/>
<rect x="6" y="6.75" width="24" height="1.5" fill="white"/>
<rect x="6" y="15.1504" width="24" height="1.5" fill="white"/>
<rect x="10.05" y="20.25" width="19.95" height="1.5" fill="white"/>
<rect x="40.5" y="4.5" width="18" height="1.5" fill="white"/>
<path d="M41.925 22.2745C48.45 13.1998 61.3523 12.8989 63 21.3739C64.5751 29.4748 59.1 31.8748 55.05 31.8748C51 31.8748 48.9 29.3918 48.9 26.9248C48.9 24.2998 51.7285 21.9387 54.75 22.2745C58.8 22.7245 59.55 28.4998 59.55 30.5998" stroke="white" stroke-width="2"/>
</svg>
