<svg width="78" height="78" viewBox="0 0 78 78" fill="none" xmlns="http://www.w3.org/2000/svg">
<rect x="2" y="2" width="74" height="74" rx="12" fill="white"/>
<rect x="2" y="2" width="74" height="74" rx="12" stroke="black" stroke-width="4"/>
<rect x="45" y="32" width="2" height="25" fill="black"/>
<rect x="33" y="21" width="2" height="17" fill="black"/>
<rect x="17" y="27" width="2" height="2" fill="black"/>
<rect x="63" y="48" width="2" height="2" fill="black"/>
<rect x="45" y="30" width="24" height="2" fill="black"/>
<rect x="47" y="57" width="2" height="2" fill="black"/>
<rect x="19" y="29" width="2" height="2" fill="black"/>
<rect x="65" y="50" width="2" height="2" fill="black"/>
<rect x="49" y="34" width="2" height="2" fill="black"/>
<rect x="49" y="59" width="2" height="2" fill="black"/>
<rect x="21" y="31" width="2" height="2" fill="black"/>
<rect x="11" y="21" width="2" height="2" fill="black"/>
<rect x="67" y="52" width="2" height="2" fill="black"/>
<rect x="55" y="65" width="2" height="2" fill="black"/>
<rect x="27" y="13" width="2" height="2" fill="black"/>
<rect x="51" y="36" width="2" height="2" fill="black"/>
<rect x="57" y="42" width="2" height="2" fill="black"/>
<rect x="51" y="61" width="2" height="2" fill="black"/>
<rect x="23" y="33" width="2" height="2" fill="black"/>
<rect x="13" y="23" width="2" height="2" fill="black"/>
<rect x="23" y="9" width="2" height="2" fill="black"/>
<rect x="57" y="67" width="2" height="2" fill="black"/>
<rect x="29" y="15" width="2" height="2" fill="black"/>
<rect x="53" y="38" width="2" height="2" fill="black"/>
<rect x="59" y="44" width="2" height="2" fill="black"/>
<rect x="53" y="63" width="2" height="2" fill="black"/>
<rect x="25" y="35" width="2" height="2" fill="black"/>
<rect x="15" y="25" width="2" height="2" fill="black"/>
<rect x="25" y="11" width="2" height="2" fill="black"/>
<rect x="31" y="17" width="2" height="2" fill="black"/>
<rect x="55" y="40" width="2" height="2" fill="black"/>
<rect x="61" y="46" width="2" height="2" fill="black"/>
<rect x="38" y="41" width="5" height="2" fill="black"/>
<rect x="33" y="19" width="36" height="2" fill="black"/>
<rect x="24" y="39" width="6" height="20" fill="black"/>
<rect x="24" y="59" width="6" height="2" fill="black"/>
<rect x="21" y="40" width="3" height="18" fill="black"/>
<rect x="21" y="58" width="3" height="2" fill="black"/>
<rect x="30" y="40" width="3" height="18" fill="black"/>
<rect x="30" y="58" width="3" height="2" fill="black"/>
<rect x="33" y="42" width="2" height="14" fill="black"/>
<rect x="19" y="42" width="2" height="14" fill="black"/>
<rect x="19" y="56" width="2" height="2" fill="black"/>
<rect x="33" y="56" width="2" height="2" fill="black"/>
<rect x="17" y="44" width="2" height="3" fill="black"/>
<rect x="35" y="44" width="2" height="3" fill="black"/>
<rect x="35" y="53" width="2" height="3" fill="black"/>
<rect x="17" y="53" width="2" height="3" fill="black"/>
<rect x="35" y="47" width="3" height="6" fill="black"/>
<rect x="16" y="47" width="3" height="6" fill="black"/>
<rect x="15" y="40" width="2" height="2" fill="black"/>
<rect x="15" y="58" width="2" height="2" fill="black"/>
<rect x="13" y="42" width="2" height="2" fill="black"/>
<rect x="13" y="56" width="2" height="2" fill="black"/>
<rect x="11" y="44" width="2" height="3" fill="black"/>
<rect x="11" y="53" width="2" height="3" fill="black"/>
<rect x="10" y="47" width="2" height="6" fill="black"/>
</svg>
