<svg width="355" height="201" viewBox="0 0 355 201" fill="none" xmlns="http://www.w3.org/2000/svg">
<g clip-path="url(#clip0_402_5231)">
<rect width="355" height="201" fill="white"/>
<path fill-rule="evenodd" clip-rule="evenodd" d="M1.08993 5.46009C0 7.59921 0 10.3995 0 16V185C0 190.601 0 193.401 1.08993 195.54C2.04867 197.422 3.57847 198.951 5.46009 199.91C7.59921 201 10.3995 201 16 201H339C344.601 201 347.401 201 349.54 199.91C351.422 198.951 352.951 197.422 353.91 195.54C355 193.401 355 190.601 355 185V16C355 10.3995 355 7.59921 353.91 5.46009C352.951 3.57847 351.422 2.04867 349.54 1.08993C347.401 0 344.601 0 339 0H16C10.3995 0 7.59921 0 5.46009 1.08993C3.57847 2.04867 2.04867 3.57847 1.08993 5.46009ZM3.87195 7.36808C3 9.07937 3 11.3196 3 15.8V16.6842V184.316V185.2C3 189.68 3 191.921 3.87195 193.632C4.63894 195.137 5.86278 196.361 7.36808 197.128C9.07937 198 11.3196 198 15.8 198H339.147C343.628 198 345.868 198 347.579 197.128C349.085 196.361 350.308 195.137 351.075 193.632C351.947 191.921 351.947 189.68 351.947 185.2V184.316V16.6842V15.8C351.947 11.3196 351.947 9.07937 351.075 7.36808C350.308 5.86278 349.085 4.63894 347.579 3.87195C345.868 3 343.628 3 339.147 3H15.8C11.3196 3 9.07937 3 7.36808 3.87195C5.86278 4.63894 4.63894 5.86278 3.87195 7.36808ZM338.263 16.6842V184.316H334.842V20.1053H328V81.6842H324.579V26.9474V20.1053H307.474H194.579V26.9474H297.211V61.1579L293.789 61.1579V30.3684H286.947V61.1579H283.526V37.2105V30.3684H194.579V37.2105L276.684 37.2105V68H283.526H304.053L304.053 61.1579V26.9474H307.474V71.4211H273.263V57.7368V50.8947H201.421V47.4737H273.263V40.6316H201.421H194.579V50.8947H191.158V20.1053H184.316H180.895H174.053V40.6316L170.632 40.6316V26.9474L170.632 20.1053H153.526V26.9474V50.8947H98.7895V57.7368H163.789V71.4211L109.053 71.4211V61.1579H102.211V71.4211V78.2632L163.789 78.2632H170.632V57.7368H180.895V50.8947H160.368V26.9474H163.789V47.4737H170.632H180.895V40.6316V26.9474H184.316L184.316 50.8947V57.7368L184.316 71.4211L180.895 71.4211V61.1579H174.053V71.4211V78.2632L184.316 78.2632H191.158V57.7368H266.421V71.4211H211.684V68H263V61.1579H194.579V68V78.2632H201.421V68H204.842V78.2632H211.684L266.421 78.2632H314.316V71.4211V26.9474H317.737V81.6842H293.789H286.947V133H283.526V81.6842H276.684H273.263H266.421H225.368V88.5263H266.421V174.053H263V170.632V163.789H180.895V129.579H184.316L184.316 153.526V160.368H263V153.526V122.737H256.158V153.526L232.211 153.526V129.579H235.632V150.105H242.474L252.737 150.105L252.737 143.263V122.737H245.895V143.263H242.474V129.579L242.474 122.737H225.368V129.579V153.526L191.158 153.526V150.105H215.105H221.947V122.737H215.105H194.579V129.579V133V139.842H211.684V133H201.421V129.579H215.105V143.263H191.158V122.737H184.316H174.053H109.053V129.579H174.053V153.526H133V160.368H174.053L174.053 163.789H129.579V150.105L170.632 150.105L170.632 143.263V139.842L170.632 133H122.737V139.842H163.789V143.263H122.737V150.105V163.789V170.632V174.053V180.895H180.895L180.895 174.053V170.632H256.158V174.053H184.316V180.895L266.421 180.895H273.263V88.5263H276.684V139.842H283.526H286.947H293.789V98.7895L317.737 98.7895V102.211H297.211V109.053V160.368H304.053H317.737L317.737 163.789H293.789V150.105V143.263H276.684V150.105V180.895H283.526L324.579 180.895V174.053H283.526V150.105H286.947V170.632H293.789L317.737 170.632H324.579V122.737H317.737V153.526H314.316V119.316H328V184.316H16.6842V16.6842H20.1053V78.2632H26.9474V16.6842H338.263ZM129.579 170.632H174.053L174.053 174.053H129.579V170.632ZM328 88.5263V112.474H314.316H307.474V153.526H304.053V109.053L324.579 109.053V102.211V98.7895L324.579 91.9474H293.789V88.5263H328ZM112.474 133H119.316V180.895H112.474L112.474 139.842H109.053V180.895H102.211H91.9474V174.053V122.737H98.7895V174.053H102.211L102.211 139.842V133V122.737H109.053V133H112.474ZM88.5263 112.474V50.8947V37.2105H143.263V40.6316H98.7895V47.4737H143.263H150.105V20.1053H143.263H30.3684V26.9474H143.263V30.3684H88.5263H81.6842V50.8947V112.474H78.2632V50.8947H71.4211H47.4737L47.4737 47.4737L71.4211 47.4737H78.2632V30.3684H71.4211H30.3684V37.2105L30.3684 71.4211H26.9474V78.2632H30.3684H37.2105V37.2105L71.4211 37.2105V40.6316H40.6316V47.4737V78.2632H47.4737L47.4737 57.7368H50.8947L50.8947 81.6842H26.9474V88.5263H50.8947L50.8947 91.9474H30.3684V98.7895V174.053V180.895H68V174.053V150.105V143.263H47.4737L47.4737 139.842H68V133H47.4737L47.4737 129.579H57.7368V122.737H47.4737V102.211H40.6316V122.737V129.579V143.263V150.105L61.1579 150.105V174.053H37.2105V98.7895H50.8947H57.7368V57.7368H61.1579V109.053H68V57.7368H71.4211V112.474V119.316H81.6842V174.053H78.2632L78.2632 129.579L78.2632 122.737H68V112.474H61.1579H57.7368V102.211H50.8947V112.474V119.316H61.1579L61.1579 129.579H68H71.4211V180.895H78.2632H81.6842H88.5263V119.316V112.474ZM98.7895 40.6316H91.9474V57.7368V88.5263H98.7895V57.7368V40.6316ZM91.9474 91.9474H98.7895V119.316H91.9474V91.9474ZM109.053 81.6842H102.211V91.9474H98.7895V98.7895H102.211V112.474H98.7895V119.316L102.211 119.316H109.053V81.6842ZM112.474 91.9474H119.316H129.579V98.7895H119.316V102.211H129.579V109.053H119.316V112.474H129.579V119.316H119.316H112.474V91.9474ZM139.842 91.9474H133V119.316H139.842H150.105V112.474H139.842V109.053H150.105V102.211H139.842V98.7895H150.105V91.9474H139.842ZM245.895 91.9474H252.737V119.316H245.895V91.9474ZM242.474 91.9474H235.632V109.053H242.474V91.9474ZM225.368 112.474V109.053V102.211H235.632V109.053L232.211 109.053V112.474H242.474V119.316H225.368V112.474ZM170.632 102.211V88.5263V81.6842H160.368H153.526V119.316H160.368V109.053H170.632V102.211ZM160.368 88.5263V102.211H163.789V88.5263H160.368ZM180.895 81.6842H174.053V112.474H163.789V119.316L174.053 119.316H180.895V88.5263H184.316L184.316 119.316H191.158V88.5263H194.579V119.316H201.421V81.6842H194.579H191.158H184.316H180.895ZM204.842 81.6842H211.684H215.105H221.947V119.316H215.105L215.105 98.7895H211.684V119.316H204.842V81.6842ZM211.684 91.9474H215.105V88.5263H211.684V91.9474ZM20.1053 81.6842H26.9474V180.895H20.1053V81.6842ZM109.053 61.1579H160.368V68H109.053V61.1579ZM252.737 102.211H263V109.053H252.737V102.211ZM225.368 91.9474H235.632V98.7895H225.368V91.9474ZM263 91.9474H252.737V98.7895H263V91.9474ZM252.737 112.474H263V119.316H252.737V112.474ZM61.1579 163.789H40.6316V170.632H61.1579V163.789ZM40.6316 153.526H61.1579V160.368H40.6316V153.526ZM109.053 81.6842H150.105V88.5263H109.053V81.6842Z" fill="black"/>
</g>
<defs>
<clipPath id="clip0_402_5231">
<rect width="355" height="201" rx="10" fill="white"/>
</clipPath>
</defs>
</svg>
