<svg width="78" height="78" viewBox="0 0 78 78" fill="none" xmlns="http://www.w3.org/2000/svg">
<rect x="2" y="2" width="74" height="74" rx="12" fill="white"/>
<rect x="2" y="2" width="74" height="74" rx="12" stroke="black" stroke-width="4"/>
<rect x="24" y="26" width="2" height="6" fill="black"/>
<rect x="25" y="22" width="2" height="4" fill="black"/>
<rect x="51" y="22" width="2" height="4" fill="black"/>
<rect x="51" y="32" width="2" height="4" fill="black"/>
<rect x="47" y="38" width="2" height="5" fill="black"/>
<rect x="29" y="38" width="2" height="5" fill="black"/>
<rect x="25" y="32" width="2" height="4" fill="black"/>
<rect x="52" y="26" width="2" height="6" fill="black"/>
<rect x="36" y="33" width="1" height="12" fill="black"/>
<rect x="41" y="33" width="1" height="12" fill="black"/>
<rect x="35" y="14" width="8" height="2" fill="black"/>
<rect x="31" y="16" width="4" height="2" fill="black"/>
<rect x="43" y="16" width="4" height="2" fill="black"/>
<rect x="47" y="18" width="2" height="2" fill="black"/>
<rect x="49" y="20" width="2" height="2" fill="black"/>
<rect x="29" y="18" width="2" height="2" fill="black"/>
<rect x="27" y="20" width="2" height="2" fill="black"/>
<rect x="27" y="36" width="2" height="2" fill="black"/>
<rect x="49" y="36" width="2" height="2" fill="black"/>
<rect x="43" y="32" width="2" height="1" fill="black"/>
<rect x="38" y="33" width="2" height="1" fill="black"/>
<rect x="33" y="32" width="2" height="1" fill="black"/>
<rect x="45" y="51" width="2" height="2" fill="black"/>
<rect x="44" y="55" width="2" height="2" fill="black"/>
<rect x="31" y="51" width="2" height="2" fill="black"/>
<rect x="32" y="55" width="2" height="2" fill="black"/>
<rect x="31" y="43" width="2" height="5" fill="black"/>
<rect x="45" y="43" width="2" height="5" fill="black"/>
<rect x="43" y="48" width="2" height="3" fill="black"/>
<rect x="33" y="48" width="2" height="3" fill="black"/>
<rect x="35" y="47" width="8" height="2" fill="black"/>
<rect x="33" y="53" width="12" height="2" fill="black"/>
<rect x="34" y="57" width="10" height="2" fill="black"/>
<rect x="36" y="61" width="6" height="2" fill="black"/>
</svg>
