<svg width="250" height="60" viewBox="0 0 250 60" fill="none" xmlns="http://www.w3.org/2000/svg">
<rect width="250" height="60" rx="20" fill="black"/>
<path d="M84 24.4805H88.8L93.6 44.6405H88.8L84 24.4805Z" fill="white"/>
<path d="M107.28 33.5996H112.08L116.88 53.9996H112.08L107.28 33.5996Z" fill="white"/>
<rect x="220.8" y="6" width="4.8" height="10.56" fill="white"/>
<rect x="213.6" y="6" width="4.8" height="10.56" fill="white"/>
<rect x="140.4" y="13.6797" width="4.8" height="40.32" fill="white"/>
<rect x="201.6" y="6" width="4.8" height="48" fill="white"/>
<rect x="24" y="6" width="4.8" height="6.72" fill="white"/>
<rect x="24" y="44.6396" width="4.8" height="9.36" fill="white"/>
<rect x="57.6001" y="44.6396" width="4.8" height="9.36" fill="white"/>
<rect x="112.8" y="8.40039" width="4.8" height="22.8" fill="white"/>
<rect x="46.3201" y="44.6396" width="4.8" height="9.36" fill="white"/>
<rect x="35.04" y="44.6396" width="4.8" height="9.36" fill="white"/>
<rect x="55.2" y="12.7197" width="4.8" height="25.68" fill="white"/>
<rect x="79.2" y="8.40039" width="4.8" height="45.6" fill="white"/>
<rect x="98.3999" y="8.40039" width="4.8" height="45.6" fill="white"/>
<rect x="28.5601" y="12.7197" width="4.8" height="25.68" fill="white"/>
<rect x="37.4399" y="12.7197" width="4.8" height="25.68" fill="white"/>
<rect x="46.3201" y="12.7197" width="4.8" height="25.68" fill="white"/>
<path d="M92.64 8.40039H95.04L91.2 24.4804H88.8L92.64 8.40039Z" fill="white"/>
<path d="M115.2 35.2803H117.6L113.76 42.7203H111.36L115.2 35.2803Z" fill="white"/>
<rect x="134.4" y="11.2803" width="21.12" height="2.4" fill="white"/>
<rect x="141.6" y="51.5996" width="16.8" height="2.4" fill="white"/>
<rect x="24" y="24.4805" width="38.4" height="2.4" fill="white"/>
<rect x="98.3999" y="6" width="19.2" height="2.4" fill="white"/>
<rect x="98.3999" y="31.2002" width="19.2" height="2.4" fill="white"/>
<rect x="98.3999" y="18.7197" width="19.2" height="2.4" fill="white"/>
<rect x="24" y="38.4004" width="38.4" height="2.4" fill="white"/>
<rect x="28.8" y="10.3203" width="33.6" height="2.4" fill="white"/>
<rect x="134.4" y="31.2002" width="24" height="2.4" fill="white"/>
<rect x="168" y="31.2002" width="24" height="2.4" fill="white"/>
<path d="M205.68 27.3604L225.6 31.2004V33.6004L205.68 29.7604V27.3604Z" fill="white"/>
<rect x="79.2" y="6" width="15.84" height="2.4" fill="white"/>
</svg>
