<svg width="74" height="40" viewBox="0 0 74 40" fill="none" xmlns="http://www.w3.org/2000/svg">
<rect x="1" y="1" width="72" height="38" rx="11" fill="black"/>
<rect x="1" y="1" width="72" height="38" rx="11" stroke="white" stroke-width="2"/>
<rect x="21" y="20" width="3" height="9" fill="white"/>
<rect x="9" y="20" width="3" height="9" fill="white"/>
<circle cx="21" cy="8.2998" r="2.25" stroke="white" stroke-width="1.5"/>
<rect x="13.5" y="8.75" width="3" height="24.75" fill="white"/>
<rect x="10.5" y="33.5" width="6" height="1.5" fill="white"/>
<rect x="9" y="15.3496" width="15" height="1.5" fill="white"/>
<rect x="30" y="20.75" width="15" height="1.5" fill="white"/>
<rect x="51" y="13.8496" width="13.8" height="1.5" fill="white"/>
<rect x="63" y="5" width="3" height="6.6" fill="white"/>
<rect x="58.5" y="5" width="3" height="6.6" fill="white"/>
<path d="M63.9167 13.8496H66L53.0833 34.9996H51L63.9167 13.8496Z" fill="white"/>
<path d="M58.8 22.25H62.0728L66 35H62.7273L58.8 22.25Z" fill="white"/>
</svg>
