<svg width="74" height="40" viewBox="0 0 74 40" fill="none" xmlns="http://www.w3.org/2000/svg">
<rect x="1" y="1" width="72" height="38" rx="11" fill="black"/>
<rect x="1" y="1" width="72" height="38" rx="11" stroke="white" stroke-width="2"/>
<rect x="12.6499" y="5" width="3" height="17.25" fill="white"/>
<rect x="8" y="8.4502" width="3" height="9.45" fill="white"/>
<rect x="17.3" y="8.4502" width="3" height="9.45" fill="white"/>
<rect x="21.6499" y="6.5" width="3" height="15.75" fill="white"/>
<rect x="27.5" y="13.25" width="3" height="12" fill="white"/>
<rect x="52.3999" y="10.0996" width="3" height="7.8" fill="white"/>
<rect x="62" y="10.0996" width="3" height="7.8" fill="white"/>
<rect x="57.2" y="25.25" width="3" height="9.75" fill="white"/>
<rect x="54.2" y="33.5" width="6" height="1.5" fill="white"/>
<rect x="8" y="6.2002" width="12.3" height="1.5" fill="white"/>
<rect x="21.6499" y="5" width="8.85" height="1.5" fill="white"/>
<rect x="22.1001" y="11.75" width="9.9" height="1.5" fill="white"/>
<rect x="53.8999" y="10.0996" width="9.6" height="1.5" fill="white"/>
<rect x="53.8999" y="15.5" width="9.6" height="1.5" fill="white"/>
<rect x="50.8999" y="23.75" width="11.55" height="1.5" fill="white"/>
<rect x="8" y="19.25" width="12.3" height="1.5" fill="white"/>
<rect x="8.6001" y="8.4502" width="8.7" height="1.5" fill="white"/>
<rect x="8.6001" y="12.5" width="8.7" height="1.5" fill="white"/>
<rect x="8.6001" y="16.4004" width="8.7" height="1.5" fill="white"/>
<rect x="9.6499" y="23.75" width="3" height="11.25" fill="white"/>
<rect x="23.6001" y="23.75" width="3" height="11.25" fill="white"/>
<rect x="11" y="23.75" width="15.6" height="1.5" fill="white"/>
<rect x="11" y="32.9004" width="15.6" height="1.5" fill="white"/>
<rect x="11" y="28.25" width="15.6" height="1.5" fill="white"/>
<rect x="46.55" y="9.7998" width="3" height="25.2" fill="white"/>
<path d="M47.6692 5H50.9L45.7308 24.5H42.5L47.6692 5Z" fill="white"/>
<rect x="57.2" y="5" width="3" height="3.75" fill="white"/>
<rect x="50.8999" y="19.25" width="3" height="3" fill="white"/>
<rect x="63.5" y="19.25" width="3" height="8.1" fill="white"/>
<rect x="50.8999" y="7.25" width="15.6" height="1.5" fill="white"/>
<rect x="50.8999" y="19.25" width="15.6" height="1.5" fill="white"/>
</svg>
