<svg width="100" height="100" viewBox="0 0 100 100" fill="none" xmlns="http://www.w3.org/2000/svg">
<rect x="2" y="2" width="96" height="96" rx="18" stroke="black" stroke-width="4"/>
<rect x="61.5" y="56" width="3" height="30" fill="black"/>
<rect x="72" y="56" width="3" height="30" fill="black"/>
<rect x="64.5" y="84.5" width="4.5" height="1.5" fill="black"/>
<rect x="75" y="84.5" width="4.5" height="1.5" fill="black"/>
<path d="M51 56H54L52.5 86H49.5L51 56Z" fill="black"/>
<path d="M52.5 56H54L58.5 86H57L52.5 56Z" fill="black"/>
<rect x="51" y="70.25" width="4.5" height="1.5" fill="black"/>
<rect x="33" y="56" width="3" height="30" fill="black"/>
<rect x="43.5" y="56" width="3" height="30" fill="black"/>
<path d="M34.5 56H36L40.5 86H39L34.5 56Z" fill="black"/>
<path d="M45 56H43.5L39 86H40.5L45 56Z" fill="black"/>
<path d="M21 59C21 57.3431 22.3431 56 24 56V56V71.75V71.75C22.3431 71.75 21 70.4069 21 68.75V59Z" fill="black"/>
<path d="M27 70.25V70.25C28.6569 70.25 30 71.5931 30 73.25V83C30 84.6569 28.6569 86 27 86V86V70.25Z" fill="black"/>
<path d="M27 56V56C28.6569 56 30 57.3431 30 59V65H27V56Z" fill="black"/>
<path d="M21 77H24V86V86C22.3431 86 21 84.6569 21 83V77Z" fill="black"/>
<rect x="24" y="56" width="3" height="1.5" fill="black"/>
<rect x="24" y="70.25" width="3" height="1.5" fill="black"/>
<rect x="24" y="84.5" width="3" height="1.5" fill="black"/>
<circle cx="50" cy="29" r="10" fill="black"/>
</svg>
