<svg width="100" height="100" viewBox="0 0 100 100" fill="none" xmlns="http://www.w3.org/2000/svg">
<rect x="2" y="2" width="96" height="96" rx="18" stroke="black" stroke-width="4"/>
<circle cx="50" cy="30" r="15" fill="black"/>
<rect x="78.5" y="56" width="3" height="30" fill="black"/>
<rect x="81.5" y="84.5" width="4.5" height="1.5" fill="black"/>
<path d="M68 56H71L69.5 86H66.5L68 56Z" fill="black"/>
<path d="M69.5 56H71L75.5 86H74L69.5 56Z" fill="black"/>
<rect x="68" y="70.25" width="4.5" height="1.5" fill="black"/>
<rect x="38" y="56" width="3" height="30" fill="black"/>
<rect x="41" y="56" width="3" height="1.5" fill="black"/>
<rect x="41" y="70.25" width="3" height="1.5" fill="black"/>
<path d="M44 56V56C45.6569 56 47 57.3431 47 59V68C47 69.6569 45.6569 71 44 71V71V56Z" fill="black"/>
<path d="M44 71V71C45.6569 71 47 72.3431 47 74V86H44V71Z" fill="black"/>
<path d="M26 59C26 57.3431 27.3431 56 29 56V56V86V86C27.3431 86 26 84.6569 26 83V59Z" fill="black"/>
<path d="M32 56V56C33.6569 56 35 57.3431 35 59V83C35 84.6569 33.6569 86 32 86V86V56Z" fill="black"/>
<rect x="29" y="56" width="3" height="1.5" fill="black"/>
<rect x="29" y="84.5" width="3" height="1.5" fill="black"/>
<rect x="14" y="56" width="3" height="30" fill="black"/>
<rect x="20" y="56" width="3" height="30" fill="black"/>
<path d="M15.5 56H17L21.5 86H20L15.5 56Z" fill="black"/>
<rect x="50" y="56" width="3" height="30" fill="black"/>
<rect x="60.5" y="56" width="3" height="30" fill="black"/>
<path d="M51.5 56H53L57.5 86H56L51.5 56Z" fill="black"/>
<path d="M62 56H60.5L56 86H57.5L62 56Z" fill="black"/>
</svg>
