<svg width="100" height="100" viewBox="0 0 100 100" fill="none" xmlns="http://www.w3.org/2000/svg">
<rect x="2" y="2" width="96" height="96" rx="18" stroke="black" stroke-width="4"/>
<circle cx="50" cy="30" r="15" fill="black"/>
<rect x="22.4924" y="74.8057" width="2.98507" height="11.194" fill="black"/>
<rect x="40.4031" y="74.8057" width="2.98507" height="11.194" fill="black"/>
<rect x="24.4329" y="56" width="2.98507" height="4.47761" fill="black"/>
<rect x="27.8657" y="61.9697" width="2.98507" height="9.85075" fill="black"/>
<rect x="35.1792" y="61.9697" width="2.98507" height="9.85075" fill="black"/>
<rect x="38.6121" y="56" width="2.98507" height="4.47761" fill="black"/>
<rect x="57.5671" y="56" width="2.98507" height="4.47761" fill="black"/>
<rect x="76.2239" y="57.4922" width="2.98507" height="4.02985" fill="black"/>
<rect x="40.1045" y="62.8652" width="2.98507" height="8.0597" fill="black"/>
<rect x="59.8059" y="64.3584" width="2.98507" height="20.1493" fill="black"/>
<rect x="65.0298" y="62.8652" width="2.98507" height="20.1493" fill="black"/>
<rect x="76.2239" y="62.8652" width="2.98507" height="20.1493" fill="black"/>
<rect x="70.5522" y="62.8652" width="2.98507" height="20.1493" fill="black"/>
<rect x="22.9402" y="62.8652" width="2.98507" height="8.0597" fill="black"/>
<rect x="55.3284" y="62.8652" width="7.46269" height="1.49254" fill="black"/>
<rect x="55.3284" y="83.0146" width="4.47761" height="1.49254" fill="black"/>
<rect x="71.7463" y="60.0303" width="4.47761" height="1.49254" fill="black"/>
<rect x="68.0149" y="62.8652" width="8.20895" height="1.49254" fill="black"/>
<rect x="68.0149" y="77.4922" width="8.20895" height="1.49254" fill="black"/>
<rect x="68.0149" y="70.1787" width="8.20895" height="1.49254" fill="black"/>
<rect x="59.8059" y="84.5078" width="19.403" height="1.49254" fill="black"/>
<rect x="21" y="71.8213" width="23.8806" height="1.49254" fill="black"/>
<rect x="21" y="60.4775" width="23.8806" height="1.49254" fill="black"/>
<rect x="65.0298" y="56" width="14.1791" height="1.49254" fill="black"/>
<rect x="23.9851" y="74.8057" width="17.9104" height="1.49254" fill="black"/>
<rect x="23.9851" y="83.9102" width="17.9104" height="1.49254" fill="black"/>
<rect x="23.9851" y="79.2832" width="17.9104" height="1.49254" fill="black"/>
</svg>
