<svg width="100" height="100" viewBox="0 0 100 100" fill="none" xmlns="http://www.w3.org/2000/svg">
<rect x="2" y="2" width="96" height="96" rx="18" stroke="black" stroke-width="4"/>
<path d="M53 30C53 27.2386 55.2386 25 58 25V25V75V75C55.2386 75 53 72.7614 53 70V30Z" fill="black"/>
<path d="M63 25V25C65.7614 25 68 27.2386 68 30V70C68 72.7614 65.7614 75 63 75V75V25Z" fill="black"/>
<rect x="58" y="25" width="5" height="2.5" fill="black"/>
<rect x="58" y="72.5" width="5" height="2.5" fill="black"/>
<rect x="33" y="25" width="5" height="50" fill="black"/>
<rect x="43" y="25" width="5" height="50" fill="black"/>
<path d="M13 30C13 27.2386 15.2386 25 18 25V25V51.25V51.25C15.2386 51.25 13 49.0114 13 46.25V30Z" fill="black"/>
<path d="M23 48.75V48.75C25.7614 48.75 28 50.9886 28 53.75V70C28 72.7614 25.7614 75 23 75V75V48.75Z" fill="black"/>
<path d="M23 25V25C25.7614 25 28 27.2386 28 30V40H23V25Z" fill="black"/>
<path d="M13 60H18V75V75C15.2386 75 13 72.7614 13 70V60Z" fill="black"/>
<rect x="18" y="25" width="5" height="2.5" fill="black"/>
<rect x="18" y="48.75" width="5" height="2.5" fill="black"/>
<rect x="18" y="72.5" width="5" height="2.5" fill="black"/>
<rect x="73" y="25" width="5" height="50" fill="black"/>
<rect x="78" y="25" width="5" height="2.5" fill="black"/>
<rect x="78" y="48.75" width="5" height="2.5" fill="black"/>
<path d="M83 25V25C85.7614 25 88 27.2386 88 30V46.25C88 49.0114 85.7614 51.25 83 51.25V51.25V25Z" fill="black"/>
<rect x="38" y="48.75" width="5" height="2.5" fill="black"/>
</svg>
