<svg width="100" height="100" viewBox="0 0 100 100" fill="none" xmlns="http://www.w3.org/2000/svg">
<rect x="2" y="2" width="96" height="96" rx="18" stroke="black" stroke-width="4"/>
<rect x="26.5681" y="25" width="4.73373" height="3.75" fill="black"/>
<rect x="34.8521" y="31.25" width="4.73373" height="6.75" fill="black"/>
<rect x="32.4851" y="51" width="4.73373" height="14" fill="black"/>
<rect x="18.2839" y="31.25" width="4.73373" height="6.75" fill="black"/>
<rect x="20.6509" y="51" width="4.73373" height="14" fill="black"/>
<rect x="10" y="40.5" width="4.73373" height="34.5" fill="black"/>
<rect x="52.1301" y="35" width="4.73373" height="40" fill="black"/>
<rect x="43.136" y="40.5" width="4.73373" height="34.5" fill="black"/>
<rect x="39.5857" y="72.5" width="3.5503" height="2.5" fill="black"/>
<rect x="10" y="28.75" width="37.8698" height="2.5" fill="black"/>
<rect x="20.6509" y="48.5" width="16.568" height="2.5" fill="black"/>
<rect x="20.6509" y="61.5" width="16.568" height="2.5" fill="black"/>
<rect x="81.7161" y="59" width="4.73373" height="16" fill="black"/>
<rect x="71.0652" y="37.25" width="4.73373" height="19.25" fill="black"/>
<rect x="60.4143" y="59" width="4.73373" height="16" fill="black"/>
<rect x="60.4143" y="56.5" width="26.0355" height="2.5" fill="black"/>
<rect x="65.1479" y="71.25" width="16.568" height="2.5" fill="black"/>
<rect x="75.7988" y="45" width="10.6509" height="2.5" fill="black"/>
<rect x="10" y="38" width="37.8698" height="2.5" fill="black"/>
<rect x="52.1301" y="32.5" width="37.8698" height="2.5" fill="black"/>
<path d="M30.8284 40.5H35.0228L43.1361 58H38.9416L30.8284 40.5Z" fill="black"/>
<path d="M23.9643 40.5H26.3313L17.1004 58H14.7336L23.9643 40.5Z" fill="black"/>
<rect x="68.6982" y="25" width="4.73373" height="7.5" fill="black"/>
</svg>
