<svg width="78" height="78" viewBox="0 0 78 78" fill="none" xmlns="http://www.w3.org/2000/svg">
<rect x="2" y="2" width="74" height="74" rx="12" fill="white"/>
<rect x="2" y="2" width="74" height="74" rx="12" stroke="black" stroke-width="4"/>
<rect x="43" y="12" width="21" height="4" fill="black"/>
<rect x="43" y="19" width="21" height="4" fill="black"/>
<rect x="43" y="62" width="21" height="4" fill="black"/>
<rect x="56" y="38" width="2" height="2" fill="black"/>
<rect x="47" y="60" width="2" height="1" fill="black"/>
<rect x="49" y="59" width="1" height="1" fill="black"/>
<rect x="50" y="58" width="1" height="1" fill="black"/>
<rect x="58" y="60" width="2" height="1" fill="black"/>
<rect x="57" y="59" width="1" height="1" fill="black"/>
<rect x="56" y="58" width="1" height="1" fill="black"/>
<rect x="55" y="57" width="1" height="1" fill="black"/>
<rect x="54" y="56" width="1" height="1" fill="black"/>
<rect x="52" y="56" width="1" height="1" fill="black"/>
<rect x="53" y="55" width="1" height="1" fill="black"/>
<rect x="53" y="49" width="1" height="2" fill="black"/>
<rect x="48" y="31" width="11" height="1" fill="black"/>
<rect x="51" y="57" width="1" height="1" fill="black"/>
<rect x="56" y="44" width="2" height="2" fill="black"/>
<rect x="51" y="40" width="2" height="4" fill="black"/>
<rect x="54" y="40" width="2" height="4" fill="black"/>
<rect x="49" y="38" width="2" height="2" fill="black"/>
<rect x="49" y="44" width="2" height="2" fill="black"/>
<rect x="58" y="34" width="2" height="4" fill="black"/>
<rect x="58" y="46" width="2" height="4" fill="black"/>
<rect x="47" y="34" width="2" height="4" fill="black"/>
<rect x="47" y="46" width="2" height="4" fill="black"/>
<rect x="41" y="14" width="2" height="12" fill="black"/>
<rect x="41" y="58" width="2" height="6" fill="black"/>
<rect x="64" y="14" width="2" height="12" fill="black"/>
<rect x="64" y="58" width="2" height="6" fill="black"/>
<rect x="62" y="26" width="2" height="4" fill="black"/>
<rect x="62" y="54" width="2" height="4" fill="black"/>
<rect x="43" y="26" width="2" height="4" fill="black"/>
<rect x="43" y="54" width="2" height="4" fill="black"/>
<rect x="45" y="30" width="2" height="4" fill="black"/>
<rect x="45" y="50" width="2" height="4" fill="black"/>
<rect x="60" y="30" width="2" height="4" fill="black"/>
<rect x="60" y="50" width="2" height="4" fill="black"/>
<rect x="43" y="40" width="2" height="4" fill="black"/>
<rect x="41" y="38" width="2" height="2" fill="black"/>
<rect x="41" y="44" width="2" height="2" fill="black"/>
<rect x="39" y="34" width="2" height="4" fill="black"/>
<rect x="39" y="46" width="2" height="4" fill="black"/>
<rect x="33" y="14" width="2" height="12" fill="black"/>
<rect x="33" y="58" width="2" height="6" fill="black"/>
<rect x="35" y="26" width="2" height="4" fill="black"/>
<rect x="35" y="54" width="2" height="4" fill="black"/>
<rect x="37" y="30" width="2" height="4" fill="black"/>
<rect x="37" y="50" width="2" height="4" fill="black"/>
<rect x="35" y="40" width="2" height="4" fill="black"/>
<rect x="33" y="38" width="2" height="2" fill="black"/>
<rect x="33" y="44" width="2" height="2" fill="black"/>
<rect x="31" y="34" width="2" height="4" fill="black"/>
<rect x="31" y="46" width="2" height="4" fill="black"/>
<rect x="25" y="14" width="2" height="12" fill="black"/>
<rect x="25" y="58" width="2" height="6" fill="black"/>
<rect x="27" y="26" width="2" height="4" fill="black"/>
<rect x="27" y="54" width="2" height="4" fill="black"/>
<rect x="29" y="30" width="2" height="4" fill="black"/>
<rect x="29" y="50" width="2" height="4" fill="black"/>
<rect x="27" y="40" width="2" height="4" fill="black"/>
<rect x="25" y="38" width="2" height="2" fill="black"/>
<rect x="12" y="40" width="9" height="3" fill="black"/>
<rect x="15" y="37" width="3" height="9" fill="black"/>
<rect x="25" y="44" width="2" height="2" fill="black"/>
<rect x="23" y="34" width="2" height="4" fill="black"/>
<rect x="23" y="46" width="2" height="4" fill="black"/>
<rect x="17" y="14" width="2" height="12" fill="black"/>
<rect x="17" y="58" width="2" height="6" fill="black"/>
<rect x="19" y="26" width="2" height="4" fill="black"/>
<rect x="19" y="54" width="2" height="4" fill="black"/>
<rect x="21" y="30" width="2" height="4" fill="black"/>
<rect x="21" y="50" width="2" height="4" fill="black"/>
</svg>
