<svg width="78" height="78" viewBox="0 0 78 78" fill="none" xmlns="http://www.w3.org/2000/svg">
<rect x="2" y="2" width="74" height="74" rx="12" fill="white"/>
<rect x="2" y="2" width="74" height="74" rx="12" stroke="black" stroke-width="4"/>
<rect x="52" y="28" width="6" height="20" fill="black"/>
<rect x="52" y="48" width="6" height="2" fill="black"/>
<rect x="49" y="29" width="3" height="18" fill="black"/>
<rect x="49" y="47" width="3" height="2" fill="black"/>
<rect x="58" y="29" width="3" height="18" fill="black"/>
<rect x="58" y="47" width="3" height="2" fill="black"/>
<rect x="61" y="31" width="2" height="14" fill="black"/>
<rect x="47" y="31" width="2" height="14" fill="black"/>
<rect x="47" y="45" width="2" height="2" fill="black"/>
<rect x="61" y="45" width="2" height="2" fill="black"/>
<rect x="45" y="33" width="2" height="3" fill="black"/>
<rect x="63" y="33" width="2" height="3" fill="black"/>
<rect x="63" y="42" width="2" height="3" fill="black"/>
<rect x="45" y="42" width="2" height="3" fill="black"/>
<rect x="63" y="36" width="3" height="6" fill="black"/>
<rect x="44" y="36" width="3" height="6" fill="black"/>
<rect x="42" y="29" width="3" height="2" fill="black"/>
<rect x="42" y="47" width="3" height="2" fill="black"/>
<rect x="40" y="31" width="2" height="2" fill="black"/>
<rect x="40" y="45" width="2" height="2" fill="black"/>
<rect x="38" y="33" width="2" height="3" fill="black"/>
<rect x="38" y="42" width="2" height="3" fill="black"/>
<rect x="37" y="36" width="2" height="6" fill="black"/>
<rect x="35" y="29" width="3" height="2" fill="black"/>
<rect x="35" y="47" width="3" height="2" fill="black"/>
<rect x="33" y="31" width="2" height="2" fill="black"/>
<rect x="33" y="45" width="2" height="2" fill="black"/>
<rect x="31" y="33" width="2" height="3" fill="black"/>
<rect x="31" y="42" width="2" height="3" fill="black"/>
<rect x="30" y="36" width="2" height="6" fill="black"/>
<rect x="28" y="29" width="3" height="2" fill="black"/>
<rect x="28" y="47" width="3" height="2" fill="black"/>
<rect x="26" y="31" width="2" height="2" fill="black"/>
<rect x="26" y="45" width="2" height="2" fill="black"/>
<rect x="24" y="33" width="2" height="3" fill="black"/>
<rect x="24" y="42" width="2" height="3" fill="black"/>
<rect x="23" y="36" width="2" height="6" fill="black"/>
<rect x="21" y="29" width="3" height="2" fill="black"/>
<rect x="21" y="47" width="3" height="2" fill="black"/>
<rect x="19" y="31" width="2" height="2" fill="black"/>
<rect x="19" y="45" width="2" height="2" fill="black"/>
<rect x="17" y="33" width="2" height="3" fill="black"/>
<rect x="17" y="42" width="2" height="3" fill="black"/>
<rect x="16" y="36" width="2" height="6" fill="black"/>
</svg>
