<svg width="160" height="60" viewBox="0 0 160 60" fill="none" xmlns="http://www.w3.org/2000/svg">
<rect width="160" height="60" rx="20" fill="black"/>
<path d="M88.2 33.5996H93L103.08 53.9996H98.28L88.2 33.5996Z" fill="white"/>
<rect x="54.5999" y="31.2002" width="4.8" height="22.8" fill="white"/>
<rect x="66.6001" y="8.40039" width="4.8" height="45.6" fill="white"/>
<rect x="33" y="8.40039" width="4.8" height="45.6" fill="white"/>
<rect x="45" y="8.40039" width="4.8" height="14.16" fill="white"/>
<rect x="54.5999" y="8.40039" width="4.8" height="14.16" fill="white"/>
<rect x="88.2" y="6" width="4.8" height="27.6" fill="white"/>
<rect x="105.72" y="6" width="4.8" height="27.6" fill="white"/>
<rect x="121.8" y="26.1602" width="4.8" height="7.44" fill="white"/>
<rect x="105.72" y="36.4805" width="4.8" height="17.52" fill="white"/>
<rect x="121.8" y="36.4805" width="4.8" height="17.52" fill="white"/>
<path d="M48.12 31.2002H50.52L46.68 54.0002H44.28L48.12 31.2002Z" fill="white"/>
<path d="M96.84 21.1201H99.24L95.4 54.0001H93L96.84 21.1201Z" fill="white"/>
<rect x="42.8401" y="28.7998" width="19.68" height="2.4" fill="white"/>
<rect x="42.8401" y="40.5596" width="19.68" height="2.4" fill="white"/>
<rect x="33" y="6" width="16.8" height="2.4" fill="white"/>
<rect x="37.8" y="22.5605" width="12" height="2.4" fill="white"/>
<rect x="54.5999" y="22.5605" width="12" height="2.4" fill="white"/>
<rect x="57" y="14.4004" width="9.6" height="2.4" fill="white"/>
<rect x="37.8" y="14.4004" width="9.6" height="2.4" fill="white"/>
<rect x="54.5999" y="6" width="16.8" height="2.4" fill="white"/>
<rect x="107.4" y="31.2002" width="19.2" height="2.4" fill="white"/>
<rect x="110.52" y="36.4805" width="11.28" height="2.4" fill="white"/>
<rect x="110.52" y="50.6396" width="11.28" height="2.4" fill="white"/>
<rect x="88.2" y="18.7207" width="14.88" height="2.4" fill="white"/>
</svg>
