<svg width="78" height="78" viewBox="0 0 78 78" fill="none" xmlns="http://www.w3.org/2000/svg">
<rect x="2" y="2" width="74" height="74" rx="12" fill="white"/>
<rect x="2" y="2" width="74" height="74" rx="12" stroke="black" stroke-width="4"/>
<rect x="18" y="10" width="6" height="20" fill="black"/>
<rect x="18" y="30" width="6" height="2" fill="black"/>
<rect x="15" y="11" width="3" height="18" fill="black"/>
<rect x="15" y="29" width="3" height="2" fill="black"/>
<rect x="24" y="11" width="3" height="18" fill="black"/>
<rect x="24" y="29" width="3" height="2" fill="black"/>
<rect x="27" y="13" width="2" height="14" fill="black"/>
<rect x="13" y="13" width="2" height="14" fill="black"/>
<rect x="13" y="27" width="2" height="2" fill="black"/>
<rect x="27" y="27" width="2" height="2" fill="black"/>
<rect x="11" y="15" width="2" height="3" fill="black"/>
<rect x="29" y="15" width="2" height="3" fill="black"/>
<rect x="29" y="24" width="2" height="3" fill="black"/>
<rect x="11" y="24" width="2" height="3" fill="black"/>
<rect x="29" y="18" width="3" height="6" fill="black"/>
<rect x="10" y="18" width="3" height="6" fill="black"/>
<rect x="54" y="46" width="6" height="2" fill="black"/>
<rect x="54" y="66" width="6" height="2" fill="black"/>
<rect x="51" y="47" width="3" height="2" fill="black"/>
<rect x="51" y="65" width="3" height="2" fill="black"/>
<rect x="60" y="47" width="3" height="2" fill="black"/>
<rect x="60" y="65" width="3" height="2" fill="black"/>
<rect x="63" y="49" width="2" height="2" fill="black"/>
<rect x="49" y="49" width="2" height="2" fill="black"/>
<rect x="49" y="63" width="2" height="2" fill="black"/>
<rect x="63" y="63" width="2" height="2" fill="black"/>
<rect x="47" y="51" width="2" height="3" fill="black"/>
<rect x="65" y="51" width="2" height="3" fill="black"/>
<rect x="65" y="60" width="2" height="3" fill="black"/>
<rect x="47" y="60" width="2" height="3" fill="black"/>
<rect x="66" y="54" width="2" height="6" fill="black"/>
<rect x="46" y="54" width="2" height="6" fill="black"/>
<rect x="39" y="20" width="8" height="2" fill="black"/>
<rect x="47" y="21" width="4" height="2" fill="black"/>
<rect x="27" y="55" width="4" height="2" fill="black"/>
<rect x="51" y="22" width="2" height="2" fill="black"/>
<rect x="25" y="54" width="2" height="2" fill="black"/>
<rect x="56" y="31" width="2" height="6" fill="black"/>
<rect x="20" y="41" width="2" height="6" fill="black"/>
<rect x="55" y="27" width="2" height="4" fill="black"/>
<rect x="21" y="47" width="2" height="4" fill="black"/>
<rect x="54" y="25" width="2" height="2" fill="black"/>
<rect x="58" y="37" width="2" height="2" fill="black"/>
<rect x="54" y="37" width="2" height="2" fill="black"/>
<rect x="56" y="39" width="2" height="2" fill="black"/>
<rect x="60" y="35" width="2" height="2" fill="black"/>
<rect x="52" y="35" width="2" height="2" fill="black"/>
<rect x="20" y="37" width="2" height="2" fill="black"/>
<rect x="22" y="39" width="2" height="2" fill="black"/>
<rect x="18" y="39" width="2" height="2" fill="black"/>
<rect x="16" y="41" width="2" height="2" fill="black"/>
<rect x="24" y="41" width="2" height="2" fill="black"/>
<rect x="22" y="51" width="2" height="2" fill="black"/>
<rect x="53" y="23" width="2" height="2" fill="black"/>
<rect x="23" y="53" width="2" height="2" fill="black"/>
<rect x="31" y="56" width="8" height="2" fill="black"/>
</svg>
