<svg width="78" height="78" viewBox="0 0 78 78" fill="none" xmlns="http://www.w3.org/2000/svg">
<rect x="2" y="2" width="74" height="74" rx="12" fill="white"/>
<rect x="2" y="2" width="74" height="74" rx="12" stroke="black" stroke-width="4"/>
<rect x="26" y="31" width="10" height="2" fill="black"/>
<rect x="39" y="18" width="2" height="41" fill="black"/>
<rect x="43" y="14" width="2" height="49" fill="black"/>
<rect x="39" y="14" width="4" height="2" fill="black"/>
<rect x="37" y="16" width="2" height="2" fill="black"/>
<rect x="39" y="61" width="4" height="2" fill="black"/>
<rect x="37" y="59" width="2" height="2" fill="black"/>
<rect x="35" y="18" width="2" height="2" fill="black"/>
<rect x="35" y="57" width="2" height="2" fill="black"/>
<rect x="33" y="20" width="2" height="2" fill="black"/>
<rect x="33" y="55" width="2" height="2" fill="black"/>
<rect x="31" y="22" width="2" height="33" fill="black"/>
<rect x="26" y="38" width="10" height="2" fill="black"/>
<rect x="12" y="37" width="10" height="4" fill="black"/>
<rect x="13" y="36" width="8" height="1" fill="black"/>
<rect x="14" y="35" width="6" height="1" fill="black"/>
<rect x="13" y="41" width="8" height="1" fill="black"/>
<rect x="14" y="42" width="6" height="1" fill="black"/>
<rect x="15" y="43" width="4" height="1" fill="black"/>
<rect x="15" y="34" width="4" height="1" fill="black"/>
<rect x="57" y="37" width="10" height="4" fill="black"/>
<rect x="58" y="36" width="8" height="1" fill="black"/>
<rect x="59" y="35" width="6" height="1" fill="black"/>
<rect x="58" y="41" width="8" height="1" fill="black"/>
<rect x="59" y="42" width="6" height="1" fill="black"/>
<rect x="60" y="43" width="4" height="1" fill="black"/>
<rect x="60" y="34" width="4" height="1" fill="black"/>
<rect x="58" y="37" width="8" height="4" fill="white"/>
<rect x="59" y="36" width="6" height="1" fill="white"/>
<rect x="60" y="35" width="4" height="1" fill="white"/>
<rect x="59" y="41" width="6" height="1" fill="white"/>
<rect x="60" y="42" width="4" height="1" fill="white"/>
<rect x="31" y="31" width="2" height="2" fill="white"/>
<rect x="31" y="38" width="2" height="2" fill="white"/>
<rect x="26" y="45" width="10" height="2" fill="black"/>
<rect x="48" y="31" width="5" height="2" fill="black"/>
<rect x="48" y="38" width="5" height="2" fill="black"/>
<rect x="48" y="45" width="5" height="2" fill="black"/>
<rect x="31" y="45" width="2" height="2" fill="white"/>
</svg>
