<svg width="78" height="78" viewBox="0 0 78 78" fill="none" xmlns="http://www.w3.org/2000/svg">
<rect x="2" y="2" width="74" height="74" rx="12" fill="white"/>
<rect x="2" y="2" width="74" height="74" rx="12" stroke="black" stroke-width="4"/>
<rect x="46" y="28" width="7" height="22" stroke="black" stroke-width="2"/>
<rect x="58" y="28" width="7" height="22" stroke="black" stroke-width="2"/>
<rect x="16" y="12" width="21" height="4" fill="black"/>
<rect x="16" y="19" width="21" height="4" fill="black"/>
<rect x="16" y="62" width="21" height="4" fill="black"/>
<rect x="29" y="38" width="2" height="2" fill="black"/>
<rect x="20" y="60" width="2" height="1" fill="black"/>
<rect x="22" y="59" width="1" height="1" fill="black"/>
<rect x="23" y="58" width="1" height="1" fill="black"/>
<rect x="31" y="60" width="2" height="1" fill="black"/>
<rect x="30" y="59" width="1" height="1" fill="black"/>
<rect x="29" y="58" width="1" height="1" fill="black"/>
<rect x="28" y="57" width="1" height="1" fill="black"/>
<rect x="27" y="56" width="1" height="1" fill="black"/>
<rect x="25" y="56" width="1" height="1" fill="black"/>
<rect x="26" y="55" width="1" height="1" fill="black"/>
<rect x="26" y="49" width="1" height="2" fill="black"/>
<rect x="21" y="31" width="11" height="1" fill="black"/>
<rect x="24" y="57" width="1" height="1" fill="black"/>
<rect x="29" y="44" width="2" height="2" fill="black"/>
<rect x="24" y="40" width="2" height="4" fill="black"/>
<rect x="27" y="40" width="2" height="4" fill="black"/>
<rect x="22" y="38" width="2" height="2" fill="black"/>
<rect x="22" y="44" width="2" height="2" fill="black"/>
<rect x="31" y="34" width="2" height="4" fill="black"/>
<rect x="31" y="46" width="2" height="4" fill="black"/>
<rect x="20" y="34" width="2" height="4" fill="black"/>
<rect x="20" y="46" width="2" height="4" fill="black"/>
<rect x="14" y="14" width="2" height="12" fill="black"/>
<rect x="14" y="58" width="2" height="6" fill="black"/>
<rect x="37" y="14" width="2" height="12" fill="black"/>
<rect x="37" y="58" width="2" height="6" fill="black"/>
<rect x="35" y="26" width="2" height="4" fill="black"/>
<rect x="35" y="54" width="2" height="4" fill="black"/>
<rect x="16" y="26" width="2" height="4" fill="black"/>
<rect x="16" y="54" width="2" height="4" fill="black"/>
<rect x="18" y="30" width="2" height="4" fill="black"/>
<rect x="18" y="50" width="2" height="4" fill="black"/>
<rect x="33" y="30" width="2" height="4" fill="black"/>
<rect x="33" y="50" width="2" height="4" fill="black"/>
</svg>
