<svg width="250" height="60" viewBox="0 0 250 60" fill="none" xmlns="http://www.w3.org/2000/svg">
<rect width="250" height="60" rx="20" fill="black"/>
<rect x="23.96" y="25.2002" width="4.8" height="28.8" fill="white"/>
<rect x="34.04" y="25.2002" width="4.8" height="28.8" fill="white"/>
<rect x="97.3999" y="39.5996" width="4.8" height="14.4" fill="white"/>
<rect x="146.6" y="17.7598" width="2.88" height="26.4" fill="white"/>
<rect x="151.88" y="20.1602" width="4.8" height="16.8" fill="white"/>
<rect x="167" y="20.1602" width="4.8" height="16.8" fill="white"/>
<rect x="195.8" y="30.4805" width="4.8" height="19.2" fill="white"/>
<path d="M162.2 42.4805H167L171.8 54.0005H167L162.2 42.4805Z" fill="white"/>
<path d="M210.2 6H215L219.8 54H215L210.2 6Z" fill="white"/>
<rect x="154.04" y="6" width="4.8" height="11.04" fill="white"/>
<rect x="164.84" y="6" width="4.8" height="11.04" fill="white"/>
<rect x="219.8" y="6" width="4.8" height="11.04" fill="white"/>
<rect x="104.36" y="6" width="4.8" height="19.2" fill="white"/>
<rect x="109.16" y="27.5996" width="4.8" height="26.4" fill="white"/>
<rect x="49.1599" y="6" width="4.8" height="48" fill="white"/>
<rect x="78.2" y="6" width="4.8" height="48" fill="white"/>
<rect x="88.28" y="6" width="4.8" height="48" fill="white"/>
<rect x="139.64" y="6" width="4.8" height="48" fill="white"/>
<path d="M137.24 15.5996H139.64L135.8 53.9996H133.4L137.24 15.5996Z" fill="white"/>
<path d="M157.16 37.9199H159.56L155.72 53.9999H153.32L157.16 37.9199Z" fill="white"/>
<rect x="188.6" y="20.1602" width="38.4" height="2.4" fill="white"/>
<rect x="41.72" y="22.7998" width="19.68" height="2.4" fill="white"/>
<rect x="96.9199" y="25.2002" width="19.68" height="2.4" fill="white"/>
<rect x="96.9199" y="33.5996" width="19.68" height="2.4" fill="white"/>
<rect x="96.9199" y="13.2002" width="17.04" height="2.4" fill="white"/>
<rect x="28.76" y="25.2002" width="5.28" height="2.4" fill="white"/>
<rect x="83" y="6" width="5.28" height="2.4" fill="white"/>
<rect x="83" y="27.3604" width="5.28" height="2.4" fill="white"/>
<rect x="83" y="50.6396" width="5.28" height="2.4" fill="white"/>
<rect x="28.76" y="50.6396" width="5.28" height="2.4" fill="white"/>
<rect x="23" y="10.7998" width="16.8" height="2.4" fill="white"/>
<rect x="133.4" y="13.2002" width="18.48" height="2.4" fill="white"/>
<rect x="151.88" y="8.40039" width="19.92" height="2.4" fill="white"/>
<rect x="151.88" y="40.0801" width="19.92" height="2.4" fill="white"/>
<rect x="151.88" y="17.7598" width="19.92" height="2.4" fill="white"/>
<rect x="188.6" y="28.0801" width="18.48" height="2.4" fill="white"/>
<rect x="188.6" y="49.6797" width="18.48" height="2.4" fill="white"/>
<rect x="156.68" y="33.5996" width="10.32" height="2.4" fill="white"/>
<rect x="156.68" y="25.6797" width="10.32" height="2.4" fill="white"/>
<rect x="24.9199" y="15.5996" width="13.2" height="2.4" fill="white"/>
<rect x="24.9199" y="6" width="13.2" height="2.4" fill="white"/>
<rect x="23.96" y="20.4004" width="14.88" height="2.4" fill="white"/>
</svg>
