<svg width="250" height="60" viewBox="0 0 250 60" fill="none" xmlns="http://www.w3.org/2000/svg">
<rect width="250" height="60" rx="20" fill="black"/>
<rect x="146.6" y="17.7598" width="2.88" height="26.4" fill="white"/>
<rect x="151.88" y="20.1602" width="4.8" height="16.8" fill="white"/>
<rect x="167" y="20.1602" width="4.8" height="16.8" fill="white"/>
<rect x="195.8" y="30.4805" width="4.8" height="19.2" fill="white"/>
<path d="M162.2 42.4805H167L171.8 54.0005H167L162.2 42.4805Z" fill="white"/>
<path d="M83 24.4805H87.8L92.6 44.6405H87.8L83 24.4805Z" fill="white"/>
<path d="M106.28 33.5996H111.08L115.88 53.9996H111.08L106.28 33.5996Z" fill="white"/>
<path d="M210.2 6H215L219.8 54H215L210.2 6Z" fill="white"/>
<rect x="154.04" y="6" width="4.8" height="11.04" fill="white"/>
<rect x="164.84" y="6" width="4.8" height="11.04" fill="white"/>
<rect x="219.8" y="6" width="4.8" height="11.04" fill="white"/>
<rect x="23" y="6" width="4.8" height="6.72" fill="white"/>
<rect x="23" y="44.6396" width="4.8" height="9.36" fill="white"/>
<rect x="56.6001" y="44.6396" width="4.8" height="9.36" fill="white"/>
<rect x="111.8" y="8.40039" width="4.8" height="22.8" fill="white"/>
<rect x="45.3201" y="44.6396" width="4.8" height="9.36" fill="white"/>
<rect x="34.04" y="44.6396" width="4.8" height="9.36" fill="white"/>
<rect x="54.2" y="12.7197" width="4.8" height="25.68" fill="white"/>
<rect x="78.2" y="8.40039" width="4.8" height="45.6" fill="white"/>
<rect x="97.3999" y="8.40039" width="4.8" height="45.6" fill="white"/>
<rect x="27.5601" y="12.7197" width="4.8" height="25.68" fill="white"/>
<rect x="36.4399" y="12.7197" width="4.8" height="25.68" fill="white"/>
<rect x="45.3201" y="12.7197" width="4.8" height="25.68" fill="white"/>
<rect x="139.64" y="6" width="4.8" height="48" fill="white"/>
<path d="M137.24 15.5996H139.64L135.8 53.9996H133.4L137.24 15.5996Z" fill="white"/>
<path d="M157.16 37.9199H159.56L155.72 53.9999H153.32L157.16 37.9199Z" fill="white"/>
<path d="M91.64 8.40039H94.04L90.2 24.4804H87.8L91.64 8.40039Z" fill="white"/>
<path d="M114.2 35.2803H116.6L112.76 42.7203H110.36L114.2 35.2803Z" fill="white"/>
<rect x="23" y="24.4805" width="38.4" height="2.4" fill="white"/>
<rect x="97.3999" y="6" width="19.2" height="2.4" fill="white"/>
<rect x="97.3999" y="31.2002" width="19.2" height="2.4" fill="white"/>
<rect x="97.3999" y="18.7197" width="19.2" height="2.4" fill="white"/>
<rect x="23" y="38.4004" width="38.4" height="2.4" fill="white"/>
<rect x="27.8" y="10.3203" width="33.6" height="2.4" fill="white"/>
<rect x="188.6" y="20.1602" width="38.4" height="2.4" fill="white"/>
<rect x="78.2" y="6" width="15.84" height="2.4" fill="white"/>
<rect x="133.4" y="13.2002" width="18.48" height="2.4" fill="white"/>
<rect x="151.88" y="8.40039" width="19.92" height="2.4" fill="white"/>
<rect x="151.88" y="40.0801" width="19.92" height="2.4" fill="white"/>
<rect x="151.88" y="17.7598" width="19.92" height="2.4" fill="white"/>
<rect x="188.6" y="28.0801" width="18.48" height="2.4" fill="white"/>
<rect x="188.6" y="49.6797" width="18.48" height="2.4" fill="white"/>
<rect x="156.68" y="33.5996" width="10.32" height="2.4" fill="white"/>
<rect x="156.68" y="25.6797" width="10.32" height="2.4" fill="white"/>
</svg>
