<svg width="60" height="60" viewBox="0 0 60 60" fill="none" xmlns="http://www.w3.org/2000/svg">
<rect width="60" height="60" rx="20" fill="black"/>
<rect x="24.9998" y="8" width="9.99996" height="1.99998" fill="white"/>
<rect x="24.9998" y="50" width="9.99996" height="1.99998" fill="white"/>
<rect x="8" y="25" width="1.99999" height="9.99988" fill="white"/>
<rect x="12" y="15.999" width="1.99999" height="6.99992" fill="white"/>
<rect x="46" y="15.999" width="1.99999" height="6.99992" fill="white"/>
<rect x="37" y="20.999" width="1.99999" height="6.99992" fill="white"/>
<rect x="37" y="31.999" width="1.99999" height="6.99992" fill="white"/>
<rect x="20.9998" y="31.999" width="1.99999" height="6.99992" fill="white"/>
<rect x="20.9998" y="20.999" width="1.99999" height="6.99992" fill="white"/>
<rect x="35.9998" y="17.001" width="1.99999" height="10.9999" fill="white"/>
<rect x="35.9998" y="31.999" width="1.99999" height="9.99988" fill="white"/>
<rect x="22" y="31.999" width="1.99999" height="9.99988" fill="white"/>
<rect x="22" y="17.001" width="1.99999" height="10.9999" fill="white"/>
<rect x="33.9998" y="14" width="1.99999" height="6.99992" fill="white"/>
<rect x="33.9998" y="39" width="1.99999" height="6.99992" fill="white"/>
<rect x="24.0002" y="39" width="1.99999" height="6.99992" fill="white"/>
<rect x="24.0002" y="14" width="1.99999" height="6.99992" fill="white"/>
<rect x="33" y="12.001" width="1.99999" height="4.99994" fill="white"/>
<rect x="33" y="42.999" width="1.99999" height="4.99994" fill="white"/>
<rect x="24.9998" y="42.999" width="1.99999" height="4.99994" fill="white"/>
<rect x="24.9998" y="12.001" width="1.99999" height="4.99994" fill="white"/>
<rect x="16" y="14" width="1.99998" height="6.99997" transform="rotate(-90 16 14)" fill="white"/>
<rect x="16" y="47.999" width="1.99998" height="6.99997" transform="rotate(-90 16 47.999)" fill="white"/>
<rect x="12" y="36.999" width="1.99999" height="6.99992" fill="white"/>
<rect x="46" y="36.999" width="1.99999" height="6.99992" fill="white"/>
<rect x="37" y="14" width="1.99998" height="6.99997" transform="rotate(-90 37 14)" fill="white"/>
<rect x="37" y="47.999" width="1.99998" height="6.99997" transform="rotate(-90 37 47.999)" fill="white"/>
<rect x="41" y="45.999" width="1.99998" height="4.99998" transform="rotate(-90 41 45.999)" fill="white"/>
<rect x="13.9998" y="45.999" width="1.99998" height="4.99998" transform="rotate(-90 13.9998 45.999)" fill="white"/>
<rect x="13.9998" y="15.999" width="1.99998" height="4.99998" transform="rotate(-90 13.9998 15.999)" fill="white"/>
<rect x="41" y="15.999" width="1.99998" height="4.99998" transform="rotate(-90 41 15.999)" fill="white"/>
<rect x="44" y="19" width="2.99996" height="1.99999" transform="rotate(-90 44 19)" fill="white"/>
<rect x="13.9998" y="19" width="2.99996" height="1.99999" transform="rotate(-90 13.9998 19)" fill="white"/>
<rect x="13.9998" y="44" width="2.99996" height="1.99999" transform="rotate(-90 13.9998 44)" fill="white"/>
<rect x="44" y="44" width="2.99996" height="1.99999" transform="rotate(-90 44 44)" fill="white"/>
<rect x="9.99976" y="20" width="1.99999" height="19.9998" fill="white"/>
<rect x="48" y="20" width="1.99999" height="19.9998" fill="white"/>
<rect x="20.0002" y="9.99902" width="19.9999" height="1.99998" fill="white"/>
<rect x="12" y="28.001" width="35.9999" height="3.99995" fill="white"/>
<rect x="20.0002" y="47.999" width="19.9999" height="1.99998" fill="white"/>
<rect x="50" y="25" width="1.99999" height="9.99988" fill="white"/>
</svg>
